#!OML:ASF I:\Actors\actors\Patient Classification 2\Patient 1\Session 1\actor1.ASF
:FULLY-SPECIFIED
:DEGREES
351
root -0.483576 18.6472 5.73044 -1.80665 10.9489 -1.88472
lowerback 4.20974 4.69804 6.04725
upperback -2.32565 6.73498 1.97183
thorax -4.31893 3.19374 -1.82065
lowerneck -10.2913 -5.4572 -0.160632
upperneck 10.9045 -6.23476 -8.75759
head 4.68135 -3.63164 -3.11392
rclavicle 3.598e-014 7.15625e-015
rhumerus 24.7896 7.48115 -47.9826
rradius 140.744
rwrist -12.6498
rhand -16.2352 -14.0546
rfingers 7.12502
rthumb 9.97321 -43.7983
lclavicle 3.598e-014 7.15625e-015
lhumerus -47.8763 -4.96395 91.7023
lradius 52.369
lwrist -2.09031
lhand -9.58671 -24.8916
lfingers 7.12502
lthumb 16.3816 4.43659
rfemur 0 0 0
rtibia 0
rfoot 0 0
rtoes 0
lfemur -6.17414 -6.72255 -12.7516
ltibia 24.6218
lfoot -18.9849 2.51579
ltoes -56.6358
352
root -0.484127 18.6473 5.72724 -1.77289 10.9017 -1.88575
lowerback 4.35932 4.7266 6.13504
upperback -2.40436 6.79255 1.90491
thorax -4.46437 3.21194 -1.95859
lowerneck -10.242 -5.48022 -0.0866516
upperneck 11.1402 -6.27152 -8.69922
head 4.74289 -3.6473 -3.11496
rclavicle -1.13904e-013 -3.73715e-014
rhumerus 24.4616 7.52364 -48.097
rradius 140.798
rwrist -12.5948
rhand -16.0233 -14.0511
rfingers 7.12502
rthumb 10.1776 -43.7849
lclavicle -1.13904e-013 -3.73715e-014
lhumerus -48.0085 -5.1938 91.6927
lradius 52.2817
lwrist -1.88024
lhand -9.79376 -25.4638
lfingers 7.12502
lthumb 16.1822 3.88077
rfemur 0 0 0
rtibia 0
rfoot 0 0
rtoes 0
lfemur -6.21778 -6.719 -12.7477
ltibia 24.6357
lfoot -18.9761 2.56531
ltoes -56.6139
353
root -0.485995 18.6486 5.72495 -1.7285 10.8649 -1.91351
lowerback 4.57505 4.76822 6.29755
upperback -2.55528 6.8805 1.79289
thorax -4.70702 3.23684 -2.19577
lowerneck -10.1405 -5.53214 -0.0755346
upperneck 11.5391 -6.3519 -8.46225
head 4.85212 -3.67756 -3.05664
rclavicle -5.46658e-016 -2.38542e-015
rhumerus 23.9206 7.6399 -48.3209
rradius 140.87
rwrist -12.568
rhand -15.9098 -13.9703
rfingers 7.12502
rthumb 10.2871 -43.6988
lclavicle -5.46658e-016 -2.38542e-015
lhumerus -48.2316 -5.57776 91.6904
lradius 52.3056
lwrist -1.7347
lhand -9.89698 -25.4778
lfingers 7.12502
lthumb 16.0829 3.87478
rfemur 0 0 0
rtibia 0
rfoot 0 0
rtoes 0
lfemur -6.27525 -6.67769 -12.7043
ltibia 24.6416
lfoot -19.0071 2.62828
ltoes -56.6826
354
root -0.487602 18.6502 5.7235 -1.69774 10.8477 -1.94627
lowerback 4.66194 4.78055 6.37153
upperback -2.61938 6.91157 1.75862
thorax -4.80896 3.24414 -2.28492
lowerneck -10.0622 -5.57358 -0.0387087
upperneck 11.9617 -6.41148 -8.30448
head 4.97034 -3.70185 -3.0272
rclavicle 5.29761e-014 -3.97569e-015
rhumerus 23.4377 7.84364 -48.5683
rradius 140.933
rwrist -12.5019
rhand -15.9113 -13.9699
rfingers 7.12502
rthumb 10.2858 -43.6983
lclavicle 5.29761e-014 -3.97569e-015
lhumerus -48.3469 -5.77664 91.7202
lradius 52.3173
lwrist -1.67883
lhand -9.90294 -25.4323
lfingers 7.12502
lthumb 16.0771 3.92072
rfemur 0 0 0
rtibia 0
rfoot 0 0
rtoes 0
lfemur -6.31601 -6.60256 -12.652
ltibia 24.6379
lfoot -19.0177 2.61402
ltoes -56.7585
355
root -0.488445 18.651 5.72199 -1.68728 10.8361 -1.94377
lowerback 4.64474 4.76782 6.34996
upperback -2.61349 6.89253 1.78231
thorax -4.79987 3.23634 -2.24575
lowerneck -9.90851 -5.60257 -0.0182028
upperneck 12.3784 -6.44192 -8.24222
head 5.07304 -3.71693 -3.02001
rclavicle -2.47487e-014 5.56597e-015
rhumerus 22.9726 8.17132 -48.8168
rradius 141.023
rwrist -12.3374
rhand -15.9748 -14.2391
rfingers 7.12502
rthumb 10.2245 -43.9706
lclavicle -2.47487e-014 5.56597e-015
lhumerus -48.3953 -5.81307 91.7748
lradius 52.321
lwrist -1.6959
lhand -9.82084 -25.3748
lfingers 7.12502
lthumb 16.1562 3.9719
rfemur 0 0 0
rtibia 0
rfoot 0 0
rtoes 0
lfemur -6.3251 -6.60453 -12.6515
ltibia 24.6301
lfoot -19.0318 2.61141
ltoes -56.7538
356
root -0.489157 18.6514 5.72049 -1.67147 10.8439 -1.90887
lowerback 4.62146 4.73469 6.31187
upperback -2.61828 6.84431 1.78577
thorax -4.80009 3.21378 -2.21654
lowerneck -9.66693 -5.63294 -0.0471944
upperneck 12.8347 -6.47913 -8.08951
head 5.17795 -3.73023 -2.97544
rclavicle -1.15643e-013 -2.78299e-014
rhumerus 22.4185 8.60768 -49.1524
rradius 141.107
rwrist -12.3176
rhand -16.1232 -14.3154
rfingers 7.12502
rthumb 10.0813 -44.0539
lclavicle -1.15643e-013 -2.78299e-014
lhumerus -48.4485 -5.806 91.7515
lradius 52.2965
lwrist -1.82398
lhand -9.61946 -25.3642
lfingers 7.12502
lthumb 16.3501 3.96659
rfemur 0 0 0
rtibia 0
rfoot 0 0
rtoes 0
lfemur -6.3327 -6.68219 -12.6955
ltibia 24.6162
lfoot -19.0373 2.68968
ltoes -56.7354
357
root -0.489688 18.6515 5.71876 -1.66241 10.8637 -1.86868
lowerback 4.61463 4.69052 6.29531
upperback -2.58849 6.77961 1.7411
thorax -4.76611 3.18324 -2.24693
lowerneck -9.55395 -5.66734 0.118706
upperneck 13.3481 -6.53798 -8.00523
head 5.31174 -3.75215 -2.9909
rclavicle -6.36608e-014 1.98785e-014
rhumerus 21.7465 9.12285 -49.6699
rradius 141.193
rwrist -12.4113
rhand -16.2841 -14.2681
rfingers 7.12502
rthumb 9.92606 -44.0141
lclavicle -6.36608e-014 1.98785e-014
lhumerus -48.4172 -5.76908 91.5817
lradius 52.2079
lwrist -2.28836
lhand -9.3521 -25.5454
lfingers 7.12502
lthumb 16.6075 3.76405
rfemur 0 0 0
rtibia 0
rfoot 0 0
rtoes 0
lfemur -6.33771 -6.70199 -12.7415
ltibia 24.5971
lfoot -18.9913 2.73523
ltoes -56.7793
358
root -0.490308 18.6516 5.7169 -1.6665 10.8784 -1.81922
lowerback 4.60487 4.65262 6.27688
upperback -2.52862 6.71959 1.66673
thorax -4.69507 3.15643 -2.30516
lowerneck -9.44409 -5.71111 0.431517
upperneck 13.8779 -6.62401 -7.98171
head 5.44209 -3.78342 -3.05113
rclavicle -7.89175e-014 -3.4191e-014
rhumerus 20.8959 9.76898 -50.3505
rradius 141.32
rwrist -12.4312
rhand -16.3254 -14.3266
rfingers 7.12502
rthumb 9.88621 -44.0745
lclavicle -7.89175e-014 -3.4191e-014
lhumerus -48.4496 -6.02457 91.6444
lradius 52.4589
lwrist -2.3091
lhand -9.52782 -24.5206
lfingers 7.12502
lthumb 16.4383 4.80292
rfemur 0 0 0
rtibia 0
rfoot 0 0
rtoes 0
lfemur -6.32743 -6.68765 -12.7946
ltibia 24.5799
lfoot -18.9757 2.70344
ltoes -56.7648
359
root -0.491772 18.6519 5.71512 -1.65417 10.8809 -1.77534
lowerback 4.54342 4.53385 6.19385
upperback -2.44721 6.54814 1.71564
thorax -4.60272 3.07981 -2.18901
lowerneck -9.26722 -5.66604 0.341852
upperneck 14.455 -6.55025 -7.7828
head 5.6057 -3.74283 -2.98193
rclavicle 2.34069e-014 1.59028e-014
rhumerus 20.1318 10.8785 -51.0451
rradius 141.458
rwrist -12.3721
rhand -16.3196 -14.3733
rfingers 7.12502
rthumb 9.89182 -44.121
lclavicle 2.34069e-014 1.59028e-014
lhumerus -48.4855 -5.78269 91.5996
lradius 52.3799
lwrist -2.3272
lhand -9.64113 -25.1212
lfingers 7.12502
lthumb 16.3292 4.21131
rfemur 0 0 0
rtibia 0
rfoot 0 0
rtoes 0
lfemur -6.32551 -6.69408 -12.8379
ltibia 24.5599
lfoot -18.9888 2.68857
ltoes -56.6911
360
root -0.494196 18.6517 5.71356 -1.65233 10.8713 -1.77111
lowerback 4.44976 4.30599 6.06979
upperback -2.31166 6.2304 1.92154
thorax -4.46751 2.93672 -1.87505
lowerneck -9.17308 -5.53481 -0.100215
upperneck 15.1491 -6.3052 -7.53071
head 5.84368 -3.63657 -2.83509
rclavicle 2.16178e-014 7.95139e-016
rhumerus 19.5513 12.5239 -51.722
rradius 141.628
rwrist -12.1693
rhand -16.3423 -14.5801
rfingers 7.12502
rthumb 9.86994 -44.3288
lclavicle 2.16178e-014 7.95139e-016
lhumerus -48.4644 -5.07987 91.5961
lradius 52.2924
lwrist -2.39761
lhand -9.56234 -25.6166
lfingers 7.12502
lthumb 16.4051 3.7097
rfemur 0 0 0
rtibia 0
rfoot 0 0
rtoes 0
lfemur -6.31334 -6.71777 -12.8388
ltibia 24.5314
lfoot -18.9503 2.7541
ltoes -56.7071
361
root -0.497047 18.6514 5.71272 -1.67983 10.8391 -1.76788
lowerback 4.37888 4.13691 5.94723
upperback -2.19163 5.99102 2.06502
thorax -4.34596 2.83011 -1.63426
lowerneck -8.94809 -5.47059 -0.243732
upperneck 15.8945 -6.18 -7.41098
head 6.05404 -3.58154 -2.78118
rclavicle -1.47101e-014 3.18055e-015
rhumerus 18.7002 14.106 -52.5231
rradius 141.869
rwrist -11.8859
rhand -16.3536 -14.9849
rfingers 7.12502
rthumb 9.859 -44.7341
lclavicle -1.47101e-014 3.18055e-015
lhumerus -48.4738 -4.66999 91.6493
lradius 52.2664
lwrist -2.46136
lhand -9.40609 -25.6043
lfingers 7.12502
lthumb 16.5555 3.70949
rfemur 0 0 0
rtibia 0
rfoot 0 0
rtoes 0
lfemur -6.26719 -6.73489 -12.8419
ltibia 24.509
lfoot -18.9298 2.80823
ltoes -56.6988
362
root -0.500616 18.6518 5.71284 -1.70595 10.7612 -1.74449
lowerback 4.31525 4.06875 5.82553
upperback -2.11534 5.88519 2.11378
thorax -4.25376 2.7862 -1.50254
lowerneck -8.57318 -5.45619 -0.150531
upperneck 16.6836 -6.15325 -7.34543
head 6.23774 -3.56249 -2.78477
rclavicle 7.35006e-014 3.18055e-014
rhumerus 17.8117 15.5561 -53.1818
rradius 142.251
rwrist -11.5494
rhand -16.5699 -15.6726
rfingers 7.12502
rthumb 9.65033 -45.4315
lclavicle 7.35006e-014 3.18055e-014
lhumerus -48.5645 -4.64577 91.732
lradius 52.2136
lwrist -2.50024
lhand -9.36951 -25.6462
lfingers 7.12502
lthumb 16.5907 3.66463
rfemur 0 0 0
rtibia 0
rfoot 0 0
rtoes 0
lfemur -6.20682 -6.71829 -12.8654
ltibia 24.4957
lfoot -18.9791 2.86187
ltoes -56.6678
363
root -0.504514 18.6515 5.71127 -1.73306 10.6344 -1.76622
lowerback 4.1566 3.98627 5.64459
upperback -1.94033 5.74767 2.2542
thorax -4.02114 2.7351 -1.23074
lowerneck -8.40543 -5.39081 -0.271735
upperneck 17.5995 -6.04664 -7.08752
head 6.51711 -3.50581 -2.69924
rclavicle 4.5969e-014 -1.27222e-014
rhumerus 16.2977 17.1531 -54.9754
rradius 142.259
rwrist -10.9129
rhand -16.2628 -15.0235
rfingers 7.12502
rthumb 9.94661 -44.7685
lclavicle 4.5969e-014 -1.27222e-014
lhumerus -48.4863 -4.49862 91.8577
lradius 52.1249
lwrist -2.53092
lhand -9.41253 -25.6452
lfingers 7.12502
lthumb 16.5493 3.6691
rfemur 0 0 0
rtibia 0
rfoot 0 0
rtoes 0
lfemur -6.14426 -6.69038 -12.8395
ltibia 24.4759
lfoot -19.0138 3.00442
ltoes -56.7082
364
root -0.507616 18.6506 5.70619 -1.76813 10.4648 -1.79549
lowerback 3.85366 3.8569 5.32759
upperback -1.6123 5.52523 2.50391
thorax -3.57429 2.65364 -0.751106
lowerneck -8.42033 -5.27874 -0.514447
upperneck 18.559 -5.86563 -6.76678
head 6.85408 -3.41789 -2.5756
rclavicle 9.53669e-014 3.26007e-014
rhumerus 15.1926 18.3875 -56.2895
rradius 142.627
rwrist -10.8984
rhand -15.9572 -14.777
rfingers 7.12502
rthumb 10.2415 -44.5077
lclavicle 9.53669e-014 3.26007e-014
lhumerus -48.1997 -4.10493 92.0245
lradius 52.0409
lwrist -2.3902
lhand -9.50823 -25.569
lfingers 7.12502
lthumb 16.4572 3.75295
rfemur 0 0 0
rtibia 0
rfoot 0 0
rtoes 0
lfemur -6.08312 -6.61272 -12.8039
ltibia 24.456
lfoot -19.0345 3.12401
ltoes -56.7486
365
root -0.510742 18.6504 5.70191 -1.78216 10.2703 -1.74675
lowerback 4.21926 3.84913 5.48179
upperback -1.72529 5.55081 2.32809
thorax -3.86548 2.65008 -1.04984
lowerneck -8.13679 -5.3252 -0.565161
upperneck 19.7834 -5.95651 -6.33011
head 7.21342 -3.43485 -2.4632
rclavicle -2.47984e-014 -2.14687e-014
rhumerus 12.978 19.4325 -58.1876
rradius 143.157
rwrist -10.8397
rhand -15.6612 -14.6803
rfingers 7.12502
rthumb 10.527 -44.3967
lclavicle -2.47984e-014 -2.14687e-014
lhumerus -48.5834 -4.53854 92.0343
lradius 52.0843
lwrist -2.00369
lhand -9.62685 -25.4526
lfingers 7.12502
lthumb 16.343 3.87877
rfemur 0 0 0
rtibia 0
rfoot 0 0
rtoes 0
lfemur -6.02356 -6.52941 -12.8576
ltibia 24.4393
lfoot -19.0741 3.243
ltoes -56.7875
